<svg xmlns="http://www.w3.org/2000/svg" viewBox="0 0 24 24"><defs><style>.cls-1{fill:#fff;}</style></defs><g id="Layer_2" data-name="Layer 2"><g id="Layer_1-2" data-name="Layer 1"><path class="cls-1" d="M12,2A10,10,0,1,1,2,12,10,10,0,0,1,12,2Zm0-2A12,12,0,1,0,24,12,12,12,0,0,0,12,0Zm6.4,8.09A7.39,7.39,0,0,0,8.29,5.4,7.31,7.31,0,0,0,5.6,8.09a7.15,7.15,0,0,0-1,3.71,7.39,7.39,0,0,0,5.06,7,.42.42,0,0,0,.38-.07.34.34,0,0,0,.13-.28V18c0-.33,0-.62,0-.86l-.22,0a4,4,0,0,1-.54,0,4.13,4.13,0,0,1-.67-.07,1.37,1.37,0,0,1-.64-.29,1.15,1.15,0,0,1-.42-.59L7.57,16a2.49,2.49,0,0,0-.3-.49,1.27,1.27,0,0,0-.42-.37l-.07,0L6.65,15a1,1,0,0,1-.08-.14s0-.08,0-.11a.61.61,0,0,1,.28,0l.19,0a1.34,1.34,0,0,1,.47.23,1.6,1.6,0,0,1,.47.5,1.67,1.67,0,0,0,.54.6,1.13,1.13,0,0,0,.63.21,3,3,0,0,0,.55-.05,2.16,2.16,0,0,0,.43-.14,1.55,1.55,0,0,1,.47-1,6.74,6.74,0,0,1-1-.18,3.73,3.73,0,0,1-.9-.37A2.76,2.76,0,0,1,8,13.87a3.17,3.17,0,0,1-.5-1,4.86,4.86,0,0,1-.2-1.44,2.81,2.81,0,0,1,.76-2,2.58,2.58,0,0,1,.07-2,1.3,1.3,0,0,1,.83.13,5.81,5.81,0,0,1,.8.37l.41.26a7,7,0,0,1,3.7,0L14.22,8a4.81,4.81,0,0,1,.88-.43,1.22,1.22,0,0,1,.78-.1,2.54,2.54,0,0,1,.08,2,2.81,2.81,0,0,1,.76,2,4.86,4.86,0,0,1-.2,1.44,3,3,0,0,1-.51,1,2.91,2.91,0,0,1-.78.64,3.73,3.73,0,0,1-.9.37,6.74,6.74,0,0,1-1,.18,1.7,1.7,0,0,1,.5,1.36v2a.36.36,0,0,0,.12.28.42.42,0,0,0,.38.07,7.39,7.39,0,0,0,5.06-7A7.15,7.15,0,0,0,18.4,8.09Z"/></g></g></svg>